<?xml version="1.0" encoding="UTF-8" standalone="no"?>
<!DOCTYPE svg PUBLIC "-//W3C//DTD SVG 1.1//EN" "http://www.w3.org/Graphics/SVG/1.1/DTD/svg11.dtd">
<svg xmlns="http://www.w3.org/2000/svg" version="1.1" viewBox="0 0 689 255">
<path fill="#ffffff" d="
  M 344.19 18.56
  Q 343.08 17.30 340.69 16.52
  Q 339.20 16.03 336.75 15.76
  Q 323.20 14.29 311.06 17.06
  Q 269.24 26.63 227.13 44.55
  Q 151.06 76.89 82.92 123.49
  Q 69.11 132.93 66.44 134.84
  Q 43.81 151.11 27.06 171.56
  Q 23.77 175.58 21.70 182.19
  Q 20.20 186.97 22.28 190.65
  Q 23.80 193.33 28.12 195.90
  Q 34.80 199.87 42.75 200.73
  Q 52.97 201.84 63.25 201.70
  Q 76.88 201.51 90.50 201.09
  Q 101.93 200.74 110.47 199.99
  Q 149.91 196.54 188.17 186.13
  Q 191.55 185.21 195.02 184.88
  Q 197.91 184.60 198.49 184.69
  Q 200.61 185.00 201.18 187.54
  C 201.28 187.98 201.02 188.43 200.58 188.56
  Q 194.11 190.41 187.56 191.88
  Q 178.42 193.93 174.49 194.88
  Q 134.05 204.72 94.56 206.56
  Q 81.29 207.18 60.57 207.25
  Q 46.55 207.29 43.42 207.05
  Q 34.82 206.37 26.48 203.82
  Q 20.76 202.06 15.44 198.06
  Q 10.61 194.43 9.94 188.73
  Q 8.98 180.73 13.25 174.00
  Q 15.78 170.01 18.63 166.25
  Q 21.22 162.85 24.85 159.19
  Q 39.52 144.38 55.81 132.56
  Q 144.79 68.03 248.17 29.50
  Q 258.71 25.57 267.06 22.92
  Q 286.89 16.63 307.27 12.37
  Q 322.59 9.16 338.25 9.71
  Q 343.79 9.90 348.98 11.80
  Q 359.57 15.66 357.19 27.19
  Q 356.35 31.23 353.76 35.76
  Q 348.03 45.77 340.73 54.72
  Q 332.02 65.41 317.81 79.81
  Q 315.11 82.55 312.10 83.55
  Q 310.24 84.17 308.34 83.89
  Q 304.65 83.36 306.77 80.15
  Q 307.36 79.27 309.03 77.62
  Q 329.08 57.87 343.94 33.94
  Q 344.85 32.47 345.38 30.21
  Q 345.99 27.61 346.21 26.31
  Q 346.97 21.72 344.19 18.56
  Z"
/>
<path fill="#ffffff" d="
  M 465.18 164.84
  C 465.54 165.76 466.54 166.27 467.49 166.00
  Q 472.72 164.55 477.65 162.37
  Q 481.11 160.84 485.16 157.61
  Q 490.19 153.59 495.34 149.97
  Q 496.82 148.93 498.63 148.97
  Q 503.61 149.08 507.06 148.07
  Q 509.34 147.41 511.67 147.04
  Q 514.42 146.61 516.32 147.14
  Q 521.54 148.61 520.75 155.00
  Q 520.36 158.14 516.34 162.84
  Q 509.60 170.71 500.27 175.22
  Q 490.79 179.80 480.86 176.31
  Q 476.19 174.67 477.00 169.48
  Q 477.35 167.29 475.28 168.08
  Q 467.20 171.13 458.75 173.00
  Q 455.61 173.69 455.06 171.19
  Q 454.24 167.43 456.11 164.06
  Q 459.34 158.27 462.75 152.59
  Q 463.60 151.16 463.86 150.15
  Q 464.82 146.43 460.33 148.86
  Q 444.81 157.26 431.63 168.96
  Q 428.91 171.37 427.16 172.83
  Q 423.50 175.89 422.69 176.69
  Q 420.42 178.93 417.25 179.25
  Q 413.75 179.61 415.00 176.50
  Q 415.88 174.31 417.62 172.72
  Q 417.99 172.38 418.06 172.03
  Q 418.19 171.38 417.66 171.31
  Q 417.41 171.27 416.99 171.45
  Q 402.34 177.63 386.62 175.88
  Q 382.95 175.48 381.14 174.27
  Q 378.38 172.46 377.91 169.10
  C 377.82 168.47 377.08 168.16 376.57 168.55
  Q 365.32 177.17 351.25 179.00
  Q 345.07 179.80 344.75 173.50
  Q 344.64 171.28 347.30 167.55
  Q 349.52 164.45 356.31 156.56
  Q 360.66 151.51 365.54 149.21
  C 365.85 149.06 366.18 149.05 366.47 149.17
  Q 368.27 149.90 368.06 151.51
  Q 367.94 152.38 366.91 153.65
  Q 361.23 160.62 355.58 167.62
  Q 354.58 168.85 354.21 169.63
  Q 352.84 172.51 356.73 171.68
  Q 368.41 169.18 378.00 162.38
  Q 380.26 160.78 383.49 157.09
  Q 387.78 152.17 393.13 148.36
  Q 400.95 142.80 410.51 141.81
  Q 414.19 141.44 417.70 142.42
  C 418.03 142.51 418.31 142.70 418.47 142.96
  Q 419.62 144.74 418.63 146.68
  Q 417.76 148.38 415.92 147.87
  Q 407.07 145.41 400.44 150.94
  Q 393.80 156.47 390.07 160.50
  Q 387.47 163.30 386.96 165.66
  Q 385.95 170.30 392.25 171.00
  Q 398.33 171.68 404.77 169.82
  Q 415.44 166.74 425.44 161.93
  Q 428.33 160.55 430.35 158.07
  Q 459.97 121.94 489.72 85.93
  Q 491.46 83.83 492.57 82.86
  Q 494.77 80.92 496.31 80.81
  Q 501.08 80.48 498.35 84.57
  Q 496.75 86.97 494.98 89.25
  Q 472.77 118.11 448.59 145.34
  Q 444.85 149.56 450.09 147.21
  Q 455.59 144.74 460.91 141.89
  Q 462.90 140.82 465.05 140.21
  Q 467.29 139.57 468.98 139.87
  Q 471.20 140.26 472.61 141.87
  Q 474.31 143.83 473.79 147.02
  Q 473.31 149.91 471.76 152.51
  Q 466.81 160.85 465.75 162.25
  Q 464.71 163.63 465.18 164.84
  Z
  M 511.4837 152.9062
  C 509.71 150.45 502.57 152.57 495.5386 157.6373
  C 488.51 162.71 484.24 168.81 486.0163 171.2738
  C 487.79 173.73 494.93 171.61 501.9614 166.5427
  C 508.99 161.47 513.26 155.37 511.4837 152.9062
  Z"
/>
<path fill="#ffffff" d="
  M 653.83 88.92
  Q 655.71 86.39 658.17 85.30
  Q 659.77 84.59 661.03 84.93
  Q 662.45 85.31 662.67 86.79
  Q 662.81 87.69 662.28 89.01
  Q 658.17 99.37 648.27 104.61
  Q 647.44 105.05 646.65 105.12
  Q 643.77 105.40 645.94 102.93
  Q 647.80 100.80 649.88 98.89
  Q 653.21 95.84 653.01 91.57
  C 652.97 90.62 653.26 89.68 653.83 88.92
  Z"
/>
<path fill="#ffffff" d="
  M 374.27 136.04
  Q 377.82 131.78 382.44 128.77
  Q 383.88 127.83 384.88 127.89
  Q 386.23 127.98 386.61 129.43
  Q 386.85 130.36 386.27 131.46
  Q 383.03 137.61 377.11 141.39
  Q 375.19 142.61 373.08 142.02
  C 372.11 141.75 371.60 140.69 371.99 139.76
  Q 372.86 137.72 374.27 136.04
  Z"
/>
<path fill="#ffffff" d="
  M 548.99 162.91
  C 548.94 162.26 548.26 161.86 547.66 162.12
  Q 542.17 164.52 537.13 166.58
  Q 534.62 167.60 533.89 168.67
  Q 532.83 170.24 533.00 172.75
  Q 533.28 176.86 531.71 180.99
  Q 530.26 184.82 526.91 187.47
  Q 523.05 190.53 518.33 191.97
  Q 515.86 192.73 508.67 193.96
  Q 503.25 194.88 498.81 194.94
  Q 494.01 195.00 492.72 191.42
  Q 491.73 188.66 493.46 185.80
  Q 494.95 183.34 497.69 181.44
  Q 501.47 178.80 502.34 178.36
  Q 512.29 173.30 521.34 168.04
  Q 523.00 167.07 523.00 165.15
  Q 523.00 162.01 523.00 159.05
  Q 523.00 155.11 523.45 152.99
  Q 525.80 141.92 537.56 139.24
  Q 540.62 138.55 544.50 139.50
  Q 547.72 140.29 548.26 143.29
  Q 548.92 146.99 545.12 147.78
  Q 542.72 148.27 541.63 146.07
  Q 540.47 143.70 537.50 144.25
  Q 533.77 144.94 532.12 149.45
  Q 529.71 156.06 532.77 162.30
  C 532.90 162.56 533.20 162.70 533.48 162.62
  Q 544.44 159.57 555.24 155.97
  Q 559.53 154.54 563.31 152.06
  Q 566.53 149.96 573.71 146.35
  Q 580.19 143.10 586.94 143.81
  Q 588.95 144.02 590.14 145.51
  Q 591.22 146.87 590.72 148.69
  Q 589.89 151.65 586.90 152.62
  C 585.98 152.92 584.96 152.65 584.30 151.94
  Q 581.27 148.69 577.40 150.54
  Q 570.70 153.75 564.81 158.31
  Q 559.98 162.06 553.02 169.44
  Q 552.36 170.15 552.30 170.73
  Q 552.17 171.92 554.00 171.75
  Q 555.56 171.61 558.67 169.66
  Q 568.37 163.56 577.86 157.14
  Q 580.98 155.03 583.23 155.76
  Q 586.75 156.89 584.82 160.05
  Q 582.64 163.61 580.31 167.06
  Q 578.89 169.17 580.73 171.32
  C 580.93 171.56 581.24 171.70 581.57 171.69
  Q 585.18 171.67 587.69 170.19
  Q 595.52 165.57 602.58 159.80
  C 603.35 159.17 604.31 158.80 605.31 158.75
  Q 608.10 158.60 606.49 161.27
  Q 604.24 164.96 600.68 167.43
  Q 595.90 170.74 590.77 173.49
  Q 585.81 176.15 578.25 177.00
  Q 570.57 177.86 571.01 170.15
  Q 571.07 168.99 570.04 169.51
  Q 567.50 170.80 565.03 172.54
  Q 556.65 178.46 546.00 178.25
  Q 542.03 178.17 541.11 174.74
  C 541.03 174.43 541.05 174.10 541.17 173.79
  Q 543.26 168.44 547.82 164.85
  Q 549.07 163.88 548.99 162.91
  Z
  M 501.19 185.69
  Q 499.93 187.79 502.81 187.94
  Q 510.79 188.34 518.09 185.21
  Q 523.23 183.01 523.56 176.09
  Q 523.69 173.30 521.07 174.27
  Q 512.90 177.31 504.71 182.90
  Q 504.65 182.95 503.08 183.82
  Q 501.90 184.48 501.19 185.69
  Z"
/>
<path fill="#ffffff" d="
  M 647.17 145.42
  Q 653.52 137.21 663.95 139.26
  Q 668.02 140.05 668.66 143.42
  Q 669.11 145.77 667.46 147.15
  Q 665.98 148.39 663.97 147.52
  Q 663.40 147.27 661.51 145.43
  Q 659.37 143.34 656.78 144.50
  Q 655.03 145.28 653.68 147.49
  Q 652.45 149.50 651.79 151.78
  Q 651.19 153.84 651.57 156.76
  Q 651.89 159.26 652.25 161.77
  C 652.36 162.50 653.09 162.96 653.79 162.74
  Q 665.15 159.26 676.46 155.51
  Q 677.40 155.20 678.06 155.43
  Q 679.22 155.84 679.09 156.93
  C 678.98 157.89 678.31 158.69 677.39 158.98
  Q 664.64 162.88 653.86 168.60
  C 653.50 168.78 653.28 169.15 653.27 169.56
  Q 653.12 176.31 652.51 179.25
  Q 651.24 185.32 645.95 188.45
  Q 643.21 190.07 640.19 191.07
  Q 630.40 194.33 620.75 194.75
  Q 618.93 194.83 617.01 194.33
  Q 615.02 193.81 613.71 192.69
  Q 610.21 189.72 613.81 185.56
  Q 618.84 179.76 626.73 175.99
  Q 632.51 173.22 632.56 173.20
  Q 636.33 171.19 639.98 168.97
  Q 645.23 165.76 643.75 159.50
  Q 642.01 152.11 647.17 145.42
  Z
  M 642.30 182.05
  Q 642.73 181.43 643.56 179.06
  Q 644.63 176.02 642.68 174.14
  C 642.47 173.93 642.14 173.87 641.84 173.99
  Q 630.61 178.19 621.44 185.94
  Q 619.68 187.42 622.25 187.75
  Q 630.03 188.75 637.35 185.93
  Q 640.44 184.74 642.30 182.05
  Z"
/>
<path fill="#ffffff" d="
  M 304.97 157.36
  C 305.11 158.01 305.79 158.41 306.49 158.25
  Q 312.43 156.88 318.37 155.52
  Q 321.15 154.89 323.02 153.35
  Q 327.09 150.02 329.74 145.83
  Q 331.17 143.56 333.80 143.07
  Q 338.19 142.23 338.23 145.40
  Q 338.26 147.88 340.61 147.07
  Q 349.08 144.13 356.32 145.12
  C 356.63 145.16 356.87 145.39 356.93 145.68
  Q 357.94 150.46 354.06 154.31
  Q 351.12 157.24 348.00 157.91
  C 347.70 157.97 347.40 157.82 347.29 157.55
  Q 346.48 155.57 347.61 153.90
  Q 348.61 152.41 348.69 152.04
  Q 349.03 150.56 347.48 150.34
  Q 346.75 150.24 345.69 150.61
  Q 333.09 154.95 323.29 164.04
  Q 316.97 169.89 310.59 175.67
  Q 308.66 177.41 307.55 177.87
  Q 305.54 178.71 303.61 177.91
  C 302.89 177.62 302.62 176.73 303.05 176.08
  Q 307.74 169.10 313.93 163.43
  Q 316.20 161.36 313.86 161.05
  Q 313.15 160.96 312.15 161.21
  Q 306.44 162.65 302.50 164.34
  Q 299.50 165.62 297.20 167.92
  Q 284.37 180.73 266.25 182.75
  Q 262.12 183.21 258.00 183.75
  Q 254.92 184.15 253.20 185.96
  Q 244.23 195.41 236.06 205.56
  Q 224.02 220.52 202.02 243.80
  Q 200.97 244.92 200.04 245.08
  Q 198.53 245.34 197.96 243.79
  C 197.86 243.51 197.92 243.19 198.13 242.94
  Q 200.44 240.19 201.06 239.31
  Q 214.44 220.61 229.27 203.05
  Q 239.70 190.70 250.01 178.09
  Q 252.28 175.32 248.81 176.18
  Q 244.40 177.25 240.14 176.93
  Q 238.12 176.77 237.13 175.85
  Q 235.77 174.58 236.00 172.50
  Q 236.61 167.12 233.61 169.68
  Q 231.87 171.17 231.81 171.21
  Q 222.18 178.26 210.50 178.25
  Q 205.34 178.25 205.87 174.40
  Q 206.11 172.64 207.86 170.00
  Q 212.82 162.54 219.98 157.25
  Q 222.86 155.12 228.44 151.69
  Q 232.75 149.04 237.30 146.79
  Q 243.99 143.48 251.87 143.76
  Q 254.54 143.86 255.07 146.48
  Q 255.69 149.48 253.54 151.61
  Q 252.13 153.00 250.48 152.62
  Q 248.77 152.22 247.54 150.44
  C 247.35 150.18 247.05 150.02 246.73 150.01
  Q 244.75 149.97 243.13 150.51
  Q 242.76 150.63 239.88 151.99
  Q 231.43 155.98 224.51 162.23
  Q 220.96 165.44 220.34 166.09
  Q 218.36 168.18 217.06 170.81
  Q 215.95 173.08 218.19 171.94
  Q 229.63 166.09 240.09 158.60
  Q 242.11 157.15 244.42 156.31
  Q 246.50 155.55 248.14 156.03
  Q 251.38 156.96 248.74 160.93
  Q 246.57 164.19 244.74 167.66
  Q 242.91 171.13 245.65 171.66
  Q 246.89 171.90 248.77 171.28
  Q 255.29 169.14 260.44 164.82
  Q 262.88 162.77 267.32 157.01
  Q 270.50 152.87 273.90 148.90
  Q 275.39 147.17 276.68 146.84
  Q 278.69 146.33 280.39 147.90
  C 280.62 148.11 280.73 148.43 280.68 148.75
  Q 280.31 151.16 279.06 153.31
  Q 277.56 155.90 280.00 154.75
  Q 285.73 152.06 291.65 149.83
  Q 296.49 148.01 301.52 149.25
  Q 303.35 149.71 303.79 151.79
  L 304.97 157.36
  Z
  M 263.01 174.57
  Q 262.78 175.80 263.93 175.79
  Q 264.46 175.79 265.39 175.38
  Q 278.87 169.55 291.72 162.45
  Q 294.20 161.08 295.17 158.43
  Q 297.27 152.71 291.65 155.02
  Q 275.85 161.53 263.66 173.47
  Q 263.11 174.01 263.01 174.57
  Z"
/>
</svg>
