<?xml version="1.0" encoding="UTF-8" standalone="no"?>
<!DOCTYPE svg PUBLIC "-//W3C//DTD SVG 1.1//EN" "http://www.w3.org/Graphics/SVG/1.1/DTD/svg11.dtd">
<svg xmlns="http://www.w3.org/2000/svg" version="1.1" viewBox="0 0 689 255">
<path fill="#000000" d="
  M 200.54 185.98
  Q 201.63 187.17 200.55 188.33
  Q 199.98 188.94 198.74 189.25
  Q 164.23 197.68 148.44 200.44
  Q 117.89 205.78 96.75 206.50
  Q 80.26 207.06 49.75 207.25
  Q 33.02 207.35 18.81 200.44
  Q 16.61 199.36 13.57 196.44
  Q 9.79 192.81 9.75 187.50
  Q 9.69 180.55 12.23 175.96
  Q 17.68 166.10 25.75 158.25
  Q 35.14 149.11 45.24 140.79
  Q 51.87 135.33 61.18 128.72
  Q 149.13 66.16 250.50 28.50
  Q 258.22 25.63 276.54 19.98
  Q 294.82 14.34 313.69 11.17
  Q 321.76 9.81 335.50 9.75
  Q 341.49 9.72 346.34 10.99
  Q 352.61 12.62 355.47 16.38
  Q 359.12 21.18 356.87 28.33
  Q 354.93 34.49 351.32 39.86
  Q 336.61 61.81 317.59 80.12
  Q 315.17 82.45 313.38 83.17
  Q 310.89 84.16 308.06 83.94
  Q 304.43 83.65 306.69 80.44
  Q 308.43 77.96 310.57 75.82
  Q 328.86 57.57 342.78 35.79
  Q 346.05 30.67 346.13 24.78
  Q 346.18 21.51 344.78 19.52
  Q 343.10 17.13 339.95 16.25
  Q 336.67 15.33 333.25 15.23
  Q 320.36 14.86 307.81 17.81
  Q 295.06 20.80 282.56 24.68
  Q 241.43 37.43 202.46 55.64
  Q 194.18 59.50 184.43 64.29
  Q 124.11 93.90 67.94 133.94
  Q 51.46 145.68 38.18 159.21
  Q 31.52 166.00 29.31 168.75
  Q 25.19 173.87 22.45 179.94
  Q 19.86 185.66 22.16 190.22
  Q 23.86 193.59 29.11 196.41
  Q 34.90 199.51 41.36 200.63
  Q 44.48 201.17 55.66 201.66
  Q 63.84 202.01 70.00 201.75
  Q 77.90 201.41 83.34 201.30
  Q 94.21 201.07 96.66 200.93
  Q 144.36 198.32 189.75 185.75
  Q 194.15 184.53 198.30 185.00
  Q 199.79 185.17 200.54 185.98
  Z"
/>
<path fill="#000000" d="
  M 465.26 164.72
  Q 466.03 166.54 467.92 165.94
  Q 473.04 164.32 477.93 162.18
  Q 481.29 160.71 484.90 157.81
  Q 490.11 153.64 495.57 149.80
  C 496.31 149.29 497.18 149.00 498.08 148.99
  Q 500.60 148.95 503.37 148.73
  Q 505.11 148.60 508.48 147.61
  Q 511.36 146.76 513.75 147.00
  Q 521.73 147.79 520.89 153.81
  Q 520.46 156.92 517.47 161.09
  Q 509.95 171.57 497.55 176.30
  Q 488.59 179.71 479.88 175.79
  Q 476.29 174.17 477.00 169.99
  Q 477.47 167.28 474.88 168.22
  Q 467.99 170.74 460.44 172.69
  Q 457.40 173.48 455.81 171.80
  Q 454.55 170.47 454.78 167.91
  Q 454.99 165.50 456.06 163.81
  Q 462.62 153.43 463.94 149.94
  Q 464.92 147.32 462.06 148.06
  Q 460.44 148.48 455.36 151.64
  Q 437.35 162.84 422.70 176.72
  Q 420.96 178.36 418.62 178.83
  Q 414.33 179.68 415.06 176.31
  Q 415.25 175.44 417.65 172.53
  Q 417.98 172.13 418.00 171.75
  Q 418.04 170.79 417.00 171.25
  Q 403.48 177.28 387.25 176.00
  Q 380.90 175.50 378.29 170.63
  C 378.15 170.38 378.09 170.05 378.11 169.70
  Q 378.26 167.52 376.39 168.91
  Q 366.05 176.59 353.49 178.58
  Q 349.33 179.24 347.10 178.13
  Q 344.02 176.59 344.88 172.75
  Q 345.32 170.78 347.20 168.01
  Q 350.69 162.84 356.31 156.56
  Q 360.11 152.32 363.95 149.99
  Q 365.51 149.04 366.73 149.46
  Q 368.33 150.01 367.85 151.99
  Q 367.62 152.97 366.62 154.15
  Q 361.05 160.73 355.68 167.47
  Q 354.57 168.87 354.19 169.82
  Q 352.92 173.03 357.51 171.78
  Q 369.89 168.42 379.56 161.31
  Q 381.75 159.70 384.12 156.83
  Q 391.30 148.11 401.81 143.91
  Q 408.78 141.13 416.24 142.05
  Q 419.93 142.51 418.81 146.32
  Q 418.10 148.73 415.73 147.91
  Q 408.32 145.33 401.71 149.95
  Q 395.42 154.34 389.81 160.56
  Q 388.59 161.92 387.80 163.30
  Q 386.89 164.89 386.91 166.48
  Q 386.97 170.41 391.50 171.00
  Q 394.43 171.38 397.98 171.08
  Q 400.77 170.84 404.31 169.84
  Q 414.11 167.08 423.45 162.97
  Q 425.42 162.11 427.15 160.88
  Q 428.54 159.89 430.15 157.94
  Q 460.05 121.82 489.94 85.69
  Q 492.34 82.78 495.42 81.30
  Q 496.71 80.68 497.81 80.89
  Q 500.06 81.33 498.52 84.01
  Q 496.95 86.76 495.01 89.27
  Q 474.27 116.22 451.78 141.72
  Q 451.72 141.78 449.74 143.80
  Q 448.49 145.07 447.73 146.50
  Q 446.29 149.20 449.04 147.85
  Q 456.38 144.27 463.52 140.78
  Q 466.38 139.38 469.46 140.16
  Q 472.95 141.05 473.77 143.92
  Q 474.33 145.87 473.25 149.00
  Q 471.69 153.48 468.89 157.37
  Q 467.18 159.74 465.75 162.28
  Q 464.87 163.82 465.26 164.72
  Z
  M 511.4569 152.9171
  C 509.69 150.46 502.58 152.57 495.5744 157.6154
  C 488.57 162.66 484.33 168.75 486.1031 171.2029
  C 487.87 173.66 494.98 171.55 501.9856 166.5046
  C 508.99 161.46 513.23 155.37 511.4569 152.9171
  Z"
/>
<path fill="#000000" d="
  M 653.58 89.11
  Q 656.26 85.02 660.79 85.00
  Q 663.36 84.99 662.75 87.49
  Q 661.82 91.33 659.49 94.51
  Q 655.19 100.39 649.10 104.38
  Q 647.14 105.67 645.41 104.55
  C 645.17 104.40 645.11 104.07 645.27 103.83
  Q 647.06 101.14 649.51 99.01
  Q 653.34 95.68 653.08 90.94
  C 653.05 90.29 653.22 89.65 653.58 89.11
  Z"
/>
<path fill="#000000" d="
  M 376.04 134.39
  Q 378.65 131.31 381.99 129.05
  Q 383.46 128.07 384.75 128.08
  Q 386.92 128.11 386.70 130.22
  Q 386.60 131.23 385.80 132.51
  Q 382.31 138.13 376.52 141.49
  Q 375.07 142.33 373.16 142.02
  C 372.22 141.86 371.66 140.90 371.99 140.01
  Q 372.77 137.95 374.22 136.37
  Q 375.95 134.49 376.04 134.39
  Z"
/>
<path fill="#000000" d="
  M 570.23 169.54
  Q 566.17 171.61 562.30 174.05
  Q 554.20 179.17 544.88 177.83
  Q 542.52 177.49 541.66 176.16
  Q 540.49 174.35 541.85 171.89
  Q 543.95 168.08 547.32 165.34
  Q 548.46 164.42 549.05 163.10
  Q 549.67 161.67 548.27 162.24
  L 534.72 167.74
  Q 533.00 168.44 533.00 170.49
  Q 532.99 175.33 532.07 180.06
  Q 531.55 182.73 529.76 184.77
  Q 525.56 189.53 519.48 191.44
  Q 514.39 193.04 509.13 193.83
  Q 503.40 194.69 502.37 194.79
  Q 498.40 195.19 495.50 194.25
  Q 492.90 193.41 492.37 190.86
  Q 491.96 188.95 492.98 186.75
  Q 494.33 183.80 497.08 181.84
  Q 501.82 178.44 507.09 175.93
  Q 514.86 172.23 522.02 167.46
  C 522.29 167.28 522.48 167.00 522.52 166.69
  Q 522.91 163.93 523.00 156.75
  Q 523.14 144.67 533.74 140.23
  Q 536.69 138.99 539.40 138.87
  Q 542.43 138.74 545.25 139.75
  Q 548.35 140.86 548.49 143.51
  Q 548.61 145.79 546.64 147.25
  Q 543.74 149.39 541.05 145.43
  Q 539.94 143.78 537.98 144.14
  Q 534.20 144.85 532.53 149.15
  Q 530.20 155.14 532.29 161.63
  C 532.54 162.41 533.37 162.85 534.15 162.61
  Q 542.68 159.98 550.99 157.34
  Q 556.08 155.73 561.00 153.11
  Q 573.87 146.27 577.06 145.06
  Q 583.16 142.76 588.50 144.25
  Q 590.44 144.79 590.84 146.64
  Q 591.17 148.11 590.38 149.62
  Q 589.31 151.64 587.02 152.58
  C 586.10 152.96 585.05 152.70 584.41 151.94
  Q 582.60 149.79 580.00 150.00
  Q 577.93 150.17 574.07 152.32
  Q 561.67 159.23 552.57 170.11
  C 552.37 170.36 552.34 170.69 552.51 170.93
  Q 553.62 172.54 555.54 171.33
  Q 556.41 170.77 556.50 170.72
  Q 566.54 165.13 575.81 158.32
  Q 577.87 156.80 580.35 156.20
  Q 586.00 154.83 585.00 159.09
  Q 584.66 160.55 583.07 162.74
  Q 580.22 166.68 580.06 167.81
  Q 579.36 172.79 583.71 171.44
  Q 584.20 171.28 584.82 171.22
  Q 585.51 171.16 585.94 170.94
  Q 594.86 166.30 602.70 159.98
  Q 604.03 158.91 605.75 158.75
  Q 608.39 158.51 606.69 161.19
  Q 604.79 164.18 602.11 166.37
  Q 600.58 167.62 596.54 170.33
  Q 589.61 174.98 581.43 176.68
  Q 576.97 177.60 574.57 176.75
  Q 570.53 175.33 570.67 169.80
  C 570.67 169.58 570.43 169.44 570.23 169.54
  Z
  M 501.17 185.84
  Q 501.02 187.08 501.98 187.63
  Q 502.51 187.94 503.69 187.97
  Q 512.17 188.22 518.00 185.50
  Q 523.32 183.02 523.52 176.26
  Q 523.62 172.94 520.59 174.30
  Q 511.72 178.26 501.84 184.77
  C 501.47 185.01 501.22 185.40 501.17 185.84
  Z"
/>
<path fill="#000000" d="
  M 643.52 165.12
  Q 644.29 162.97 643.94 161.06
  Q 641.74 149.28 649.90 142.62
  Q 653.30 139.85 657.25 139.09
  Q 661.60 138.25 665.69 139.81
  Q 667.74 140.60 668.55 142.64
  Q 669.30 144.54 668.25 146.26
  Q 666.88 148.50 664.24 147.54
  Q 663.60 147.31 661.32 145.29
  Q 659.14 143.36 656.62 144.58
  Q 654.78 145.47 653.43 147.93
  Q 652.28 150.03 651.68 152.36
  Q 651.25 154.04 651.63 156.65
  Q 651.94 158.81 652.00 161.02
  Q 652.06 163.27 654.21 162.61
  Q 665.18 159.26 676.50 155.50
  Q 677.42 155.19 678.05 155.34
  Q 679.27 155.64 679.05 156.83
  Q 678.71 158.66 676.93 159.21
  Q 664.58 162.99 654.98 167.96
  Q 652.62 169.18 652.88 171.83
  Q 653.57 178.79 650.64 183.66
  Q 648.35 187.47 642.44 190.11
  Q 633.92 193.92 624.44 194.42
  Q 619.79 194.67 619.06 194.64
  Q 615.92 194.53 613.81 192.94
  Q 610.75 190.63 613.06 186.81
  Q 615.21 183.25 619.47 180.22
  Q 621.35 178.87 627.42 175.89
  Q 634.48 172.41 641.03 168.06
  Q 642.91 166.81 643.52 165.12
  Z
  M 642.31 182.06
  Q 644.63 178.40 643.94 176.06
  Q 643.01 172.94 639.96 174.42
  Q 631.43 178.58 623.65 184.01
  Q 622.38 184.89 621.84 185.51
  Q 619.90 187.75 624.00 187.97
  Q 629.30 188.26 634.30 186.76
  Q 637.50 185.79 638.70 185.22
  Q 641.02 184.11 642.31 182.06
  Z"
/>
<path fill="#000000" d="
  M 315.01 161.83
  C 314.93 161.26 314.38 160.87 313.81 160.97
  Q 307.23 162.16 302.12 164.73
  Q 299.84 165.88 295.56 169.65
  Q 285.42 178.60 272.20 181.78
  Q 269.76 182.36 265.24 182.88
  Q 261.74 183.27 258.25 183.75
  Q 255.74 184.09 254.00 185.39
  Q 253.73 185.59 250.90 188.51
  Q 245.81 193.76 241.15 199.40
  Q 222.44 222.06 202.35 243.51
  Q 202.30 243.55 201.84 244.17
  Q 201.02 245.29 198.99 244.91
  C 198.12 244.75 197.72 243.74 198.24 243.02
  Q 209.30 227.65 221.36 213.08
  Q 235.98 195.42 250.38 177.57
  C 250.61 177.28 250.73 176.96 250.70 176.69
  Q 250.59 175.59 249.02 176.06
  Q 245.23 177.21 241.32 177.14
  Q 238.28 177.09 237.18 175.60
  Q 235.95 173.92 236.05 170.67
  Q 236.11 168.67 234.35 169.63
  Q 231.75 171.06 228.13 173.34
  Q 220.03 178.45 209.50 178.00
  Q 205.26 177.82 206.00 173.75
  Q 206.43 171.39 208.67 168.65
  Q 216.94 158.55 227.96 151.85
  Q 235.48 147.28 239.54 145.76
  Q 245.78 143.42 252.77 144.00
  C 253.66 144.07 254.43 144.65 254.75 145.48
  Q 256.01 148.67 253.57 151.32
  Q 251.00 154.12 247.60 150.73
  Q 246.37 149.50 244.73 150.09
  Q 229.77 155.46 219.02 167.28
  Q 217.47 168.99 217.04 171.07
  Q 216.70 172.69 218.18 171.94
  Q 228.85 166.54 238.57 159.58
  Q 240.75 158.02 243.09 156.75
  Q 246.29 155.02 248.61 156.34
  Q 250.61 157.48 249.40 159.43
  Q 246.58 164.02 244.56 168.03
  Q 243.15 170.83 245.78 171.84
  C 246.07 171.95 246.40 171.96 246.73 171.87
  Q 254.41 169.81 260.34 164.90
  Q 262.90 162.78 267.84 156.34
  Q 271.34 151.78 275.12 147.51
  C 275.49 147.10 276.00 146.85 276.54 146.81
  Q 282.65 146.43 279.75 151.75
  Q 278.87 153.37 279.32 154.50
  C 279.42 154.75 279.74 154.85 280.02 154.72
  Q 285.37 152.20 290.91 150.10
  Q 294.81 148.62 299.00 148.72
  Q 300.85 148.77 302.24 149.72
  Q 303.38 150.50 303.84 152.40
  Q 304.33 154.41 304.64 156.14
  Q 305.08 158.58 307.50 158.05
  Q 313.24 156.80 318.77 155.39
  Q 321.69 154.64 323.58 152.96
  Q 325.83 150.96 327.63 148.54
  Q 329.63 145.83 330.21 145.27
  Q 332.04 143.49 333.81 143.06
  Q 337.58 142.15 337.98 145.54
  Q 338.21 147.58 340.18 147.00
  Q 347.84 144.74 355.88 144.95
  C 356.44 144.97 356.90 145.39 356.96 145.95
  Q 357.40 150.06 355.60 152.59
  Q 352.80 156.52 348.22 157.87
  C 347.93 157.95 347.62 157.83 347.47 157.58
  Q 346.48 155.90 347.40 154.39
  Q 348.57 152.48 348.62 152.28
  Q 349.39 149.50 345.81 150.56
  Q 334.65 153.88 324.58 162.93
  Q 320.29 166.79 320.22 166.85
  Q 313.46 172.72 311.19 175.19
  Q 309.04 177.51 305.92 178.10
  Q 303.06 178.65 303.09 176.75
  Q 303.10 175.83 304.03 174.59
  Q 308.11 169.15 312.97 164.39
  Q 313.09 164.27 314.27 163.42
  Q 315.16 162.78 315.01 161.83
  Z
  M 262.91 174.59
  Q 262.45 176.01 264.14 175.83
  Q 264.76 175.77 265.70 175.35
  Q 278.70 169.51 291.32 162.88
  Q 294.86 161.02 295.62 157.07
  Q 296.40 153.07 292.56 154.56
  Q 276.40 160.88 263.69 173.43
  Q 263.09 174.03 262.91 174.59
  Z"
/>
</svg>
